{"extensionsUsed":["CVTOOLS_babylon_mesh","CVTOOLS_left_handed","CVTOOLS_unity_metadata"],"extensionsRequired":["CVTOOLS_babylon_mesh","CVTOOLS_left_handed"],"accessors":[{"bufferView":0,"componentType":5126,"count":24,"type":"VEC3","max":[0.5,0.5,0.5],"min":[-0.5,-0.5,-0.5],"name":"vertices"},{"bufferView":1,"componentType":5126,"count":24,"type":"VEC3","max":[1.0,1.0,1.0],"min":[-1.0,-1.0,-1.0],"name":"normals"},{"bufferView":2,"componentType":5126,"count":24,"type":"VEC4","max":[0.0,0.0,1.0,-1.0],"min":[-1.0,0.0,-1.0,-1.0],"name":"tangents"},{"bufferView":3,"componentType":5126,"count":24,"type":"VEC2","max":[1.0,1.0],"min":[0.0,0.0],"name":"uv"},{"bufferView":4,"componentType":5126,"count":24,"type":"VEC2","max":[0.9966580867767334,0.99594426155090332],"min":[0.0040557663887739182,0.34716415405273438],"name":"uv2"},{"bufferView":5,"componentType":5125,"count":36,"type":"SCALAR","max":[23.0],"min":[0.0],"name":"indices"},{"bufferView":6,"componentType":5126,"count":121,"type":"VEC3","max":[5.0,1.1102230246251565E-16,5.0],"min":[-5.0,-1.1102230246251565E-16,-5.0],"name":"vertices"},{"bufferView":7,"componentType":5126,"count":121,"type":"VEC3","max":[0.0,1.0,0.0],"min":[0.0,1.0,0.0],"name":"normals"},{"bufferView":8,"componentType":5126,"count":121,"type":"VEC4","max":[-1.0,0.0,0.0,-1.0],"min":[-1.0,0.0,0.0,-1.0],"name":"tangents"},{"bufferView":9,"componentType":5126,"count":121,"type":"VEC2","max":[1.0,1.0],"min":[0.0,0.0],"name":"uv"},{"bufferView":10,"componentType":5126,"count":121,"type":"VEC2","max":[1.0,1.0],"min":[0.0,0.0],"name":"uv2"},{"bufferView":11,"componentType":5125,"count":600,"type":"SCALAR","max":[120.0],"min":[0.0],"name":"indices"}],"asset":{"generator":"Babylon Toolkit (2022.3.12f1)","version":"2.0"},"buffers":[{"uri":"Scene2.bin","byteLength":10664}],"bufferViews":[{"buffer":0,"byteLength":288},{"buffer":0,"byteOffset":288,"byteLength":288},{"buffer":0,"byteOffset":576,"byteLength":384},{"buffer":0,"byteOffset":960,"byteLength":192},{"buffer":0,"byteOffset":1152,"byteLength":192},{"buffer":0,"byteOffset":1344,"byteLength":144},{"buffer":0,"byteOffset":1488,"byteLength":1452},{"buffer":0,"byteOffset":2940,"byteLength":1452},{"buffer":0,"byteOffset":4392,"byteLength":1936},{"buffer":0,"byteOffset":6328,"byteLength":968},{"buffer":0,"byteOffset":7296,"byteLength":968},{"buffer":0,"byteOffset":8264,"byteLength":2400}],"materials":[{"pbrMetallicRoughness":{"baseColorFactor":[0.0,0.00601117965,1.0,1.0],"metallicFactor":0.0},"name":"Material Blue","extras":{"metadata":{"alphaMode":2,"alphaFade":false,"useWireframe":false,"depthPrepass":false,"unlitMaterial":false,"freezeMaterial":true,"disableLighting":false,"detailBlendLevel":0.75,"detailBumpLevel":1.0,"detailRoughLevel":0.5,"lightmapLevel":1.0,"backFaceCulling":true,"directIntensity":1.0,"specularIntensity":1.0,"emissiveIntensity":1.0,"environmentIntensity":0.0,"useExpandedLightmapTexture":false,"useEmissiveAsIllumination":false,"useLightmapAsShadowmap":true,"useAlphaFromAlbedoTexture":false,"hasAlbedoTextureChannel":false,"maxSimultaneousLights":4,"indexOfRefraction":1.5,"ambientColorFactor":[1.0,1.0,1.0,1.0],"reflectionColorFactor":[1.0,1.0,1.0,1.0],"customColors":{"Color":[0.0,0.00601117965,1.0,1.0]}}}},{"pbrMetallicRoughness":{"baseColorFactor":[0.214041144,0.214041144,0.214041144,1.0],"metallicFactor":0.0,"roughnessFactor":0.5},"name":"Lit","extras":{"metadata":{"alphaMode":2,"alphaFade":false,"useWireframe":false,"depthPrepass":false,"unlitMaterial":false,"freezeMaterial":true,"disableLighting":false,"detailBlendLevel":0.75,"detailBumpLevel":1.0,"detailRoughLevel":0.5,"lightmapLevel":1.0,"backFaceCulling":true,"directIntensity":1.0,"specularIntensity":1.0,"emissiveIntensity":1.0,"environmentIntensity":1.0,"useExpandedLightmapTexture":false,"useEmissiveAsIllumination":false,"useLightmapAsShadowmap":true,"useAlphaFromAlbedoTexture":false,"hasAlbedoTextureChannel":false,"maxSimultaneousLights":4,"indexOfRefraction":1.5,"ambientColorFactor":[1.0,1.0,1.0,1.0],"reflectionColorFactor":[1.0,1.0,1.0,1.0],"customColors":{"Color":[0.214041144,0.214041144,0.214041144,1.0]}}}}],"meshes":[{"primitives":[{"attributes":{"POSITION":0,"NORMAL":1,"TANGENT":2,"TEXCOORD_0":3,"TEXCOORD_1":4},"indices":5,"material":0}],"name":"Cube Test"},{"primitives":[{"attributes":{"POSITION":6,"NORMAL":7,"TANGENT":8,"TEXCOORD_0":9,"TEXCOORD_1":10},"indices":11,"material":1}],"name":"Plane Ground"}],"nodes":[{"name":"Scene Controller","extras":{"metadata":{"guid":"8134cb7d-737e-4476-8353-0f953aec9d81"}}},{"rotation":[0.408217877,-0.234569684,0.109381631,0.8754261],"scale":[1.0,1.0,0.99999994],"translation":[0.0,50.0,0.0],"name":"Directional Light","extras":{"metadata":{"guid":"1902c768-f690-4ca8-80df-6ac36288dbc9","components":[{"alias":"light","type":0,"range":10.0,"culling":-1,"clearflags":0,"renderlist":null,"color":{"r":1.0,"g":1.0,"b":1.0,"a":1.0},"specular":{"r":1.0,"g":1.0,"b":1.0,"a":1.0},"intensity":2.0,"spotangle":30.0,"orthoscale":0.1,"autorender":true,"numcascades":2,"calczbounds":false,"updateextends":false,"ortholeft":1.7976931348623157E+308,"orthoright":1.7976931348623157E+308,"orthotop":1.7976931348623157E+308,"orthobottom":1.7976931348623157E+308,"softshadows":true,"shadowmapsize":1024,"shadowquality":"Medium","generateshadows":true,"shadowdistance":40.0,"shadowstrength":1.0,"shadowbiasfactor":0.001,"normalbiasfactor":0.0,"shadowmapbias":0.05,"normalmapbias":0.4,"shadownearplane":0.2,"cascadelambda":1.0,"twocascadesplit":0.333333343,"fourcascadesplit":[0.06666667,0.2,0.466666669],"blendpertecntage":1E-08,"boundsrefreshrate":1,"lightcontactratio":0.1,"stabilizecascades":false,"exponentdecayspeed":1.0,"penumbradarkness":1.0,"softshadowsfilter":99,"freezeshadows":false,"setdepthclamp":false,"calcdepths":false,"depthscaling":50.0,"kernelblur":false,"blurscaling":2.0,"blurkernelsize":1.0,"blurboxoffset":1.0,"shadowfrustumsize":0.0,"frustumedgefalloff":0.0,"forcebackfacesonly":false,"transparencyshadow":false,"softtransparency":false,"shadowfilterquality":"Medium","usefullfloatfirst":false}]}}},{"translation":[0.0,1.0,-10.0],"name":"Main Camera","extras":{"metadata":{"guid":"f0345a19-0253-4644-90bf-3a042a25519e","group":"MainCamera","tags":"MainCamera Layer0","components":[{"alias":"camera","type":0,"culling":-1,"clearflags":1,"renderlist":null,"maincamera":true,"camerabase":0,"perspectiveyfov":1.04719758,"perspectiveaspect":2.28082919,"perspectivezfar":2011,"perspectiveznear":0.3},{"alias":"script","order":0,"klass":"PROJECT.MyCamera","properties":{"auto__lookSpeed":2.0,"auto__moveSpeed":10.0},"instance":null}]}}},{"mesh":0,"translation":[0.0,1.0,0.0],"name":"Cube Test","extras":{"metadata":{"guid":"22038f40-70b0-420a-94a6-e8b8e43a926a","renderer":{"castshadows":true,"receiveshadows":true,"usevertexcolors":false,"istriggervolume":false,"checkcollisions":true,"hasmeshcollider":false,"freezeworldmatrix":false,"setmeshpickable":true,"cullingstrategy":0,"showboundingbox":false,"defaultellipsoid":{"x":0.5,"y":1.0,"z":0.5},"ellipsoidoffset":{"x":0.0,"y":0.0,"z":0.0},"rendergroupid":0,"layermask":1},"components":[{"alias":"script","order":0,"klass":"PROJECT.MyRotator","properties":{"auto__rotateSpeed":0.25},"instance":null}]}}},{"mesh":1,"name":"Plane Ground","extras":{"metadata":{"guid":"4ec57b46-753e-44c5-9316-1fb87a5bc8d2","renderer":{"castshadows":true,"receiveshadows":true,"usevertexcolors":false,"istriggervolume":false,"checkcollisions":true,"hasmeshcollider":false,"freezeworldmatrix":false,"setmeshpickable":true,"cullingstrategy":0,"showboundingbox":false,"defaultellipsoid":{"x":0.5,"y":1.0,"z":0.5},"ellipsoidoffset":{"x":0.0,"y":0.0,"z":0.0},"rendergroupid":0,"layermask":1}}}}],"scene":0,"scenes":[{"nodes":[0,1,2,3,4],"name":"Scene2","extras":{"metadata":{"gltf":true,"license":"standard","licensee":"DefaultCompany","intensity":1.0,"debugging":false,"properties":true,"disposeroot":false,"webptextures":false,"webplightmaps":false,"ktxtextures":false,"ktxlightmaps":false,"rendergroups":4,"rawmaterials":[],"colliderinstances":true,"reparentcolliders":true,"defaultrendergroup":0,"colliderrendergroup":0,"script":"bengine2","project":"BEngine2.js","filename":"Scene2","prewarmup":1.0,"hideloader":true,"exposure":1,"tonemapping":0,"gammacorrection":1,"trianglenormals":true,"deltaworldstep":true,"subtimestep":0.0,"contextmenu":true,"pointerlock":false,"preventdefault":false,"ccdpenetration":0.0001,"ccdenabled":true,"maxworldsweep":0,"enableinput":true,"usecapture":false,"userinput":{"supportedDevices":[{"device":"Thrustmaster T80","forward":7.0,"backward":6.0,"leftBrake":4.0,"rightBrake":5.0,"leftDonut":10.0,"rightDonut":11.0}],"padDeadStick":0.25,"padLStickXInvert":false,"padLStickYInvert":false,"padRStickXInvert":false,"padRStickYInvert":true,"padLStickLevel":1.0,"padRStickLevel":1.0,"wheelDeadZone":0.1,"mouseDeadZone":0.1,"mouseSensitivity":0.5,"mouseMoveInvert":true,"useCanvasElement":true,"arrowKeyRotation":false,"keyboardSmoothing":false,"keyboardSensitivity":3.0,"keyboardDeadZone":0.001},"showdebugcolliders":false,"collidervisibility":0.5,"collisionwireframe":true,"navigation":null,"autoclear":true,"clearcolor":{"r":0.192156866,"g":0.3019608,"b":0.4745098,"a":1.0},"sunposition":{"x":0.0,"y":50.0,"z":0.0},"sunrotation":{"x":0.408217877,"y":-0.234569684,"z":0.109381631,"w":0.8754261},"enablephysics":true,"defaultgravity":{"x":0.0,"y":-9.81,"z":0.0},"freezeactivemeshes":false,"imageprocessing":{"contrast":1.0,"exposure":1.0},"ambientlightintensity":1.0,"ambientspecularcolor":{"r":0.0,"g":0.0,"b":0.0,"a":1.0},"ambientgroundcolor":{"r":0.0,"g":0.0,"b":0.0,"a":1.0},"ambientskycolor":{"r":0.0,"g":0.0,"b":0.0,"a":1.0},"ambientcoloring":{"r":0.569617867,"g":0.609120965,"b":0.6881134,"a":1.0},"ambientlighting":0,"fogtype":"None","fogmode":0,"fogdensity":0.01,"fogcolor":{"r":0.5,"g":0.5,"b":0.5,"a":1.0},"fogstart":0.0,"fogend":300.0,"skybox":{"skyfog":false,"skytags":"","skysize":2000.0,"skyfaces":"png","basename":"assets/Default-Skybox","anisolevel":4,"exposure":1.3,"rotation":0.0,"maxreflect":false,"hdrskybox":false,"rendergroup":0,"extensions":["_px.png","_py.png","_pz.png","_nx.png","_ny.png","_nz.png"],"polynomial":0.01,"environment":null}}}}]}